SplineFontDB: 3.2
FontName: MrsSaintDelafield-Regular
FullName: Mrs Saint Delafield
FamilyName: Mrs Saint Delafield
Weight: Book
Copyright: Copyright (c) 2004 Alejandro Paul (sudtipos@sudtipos.com),\nwith Reserved Font Name "Mrs Saint Delafield"
Version: 1.001
ItalicAngle: 0
UnderlinePosition: -100
UnderlineWidth: 50
Ascent: 800
Descent: 200
InvalidEm: 0
sfntRevision: 0x00010000
LayerCount: 2
Layer: 0 1 "Back" 1
Layer: 1 1 "Fore" 0
XUID: [1021 359 1248094278 7667766]
StyleMap: 0x0040
FSType: 0
OS2Version: 2
OS2_WeightWidthSlopeOnly: 0
OS2_UseTypoMetrics: 0
CreationTime: 1322354140
ModificationTime: 1727966517
PfmFamily: 17
TTFWeight: 400
TTFWidth: 5
LineGap: 0
VLineGap: 0
Panose: 2 0 0 0 0 0 0 0 0 0
OS2TypoAscent: 906
OS2TypoAOffset: 0
OS2TypoDescent: -619
OS2TypoDOffset: 0
OS2TypoLinegap: 0
OS2WinAscent: 906
OS2WinAOffset: 0
OS2WinDescent: 619
OS2WinDOffset: 0
HheadAscent: 906
HheadAOffset: 0
HheadDescent: -619
HheadDOffset: 0
OS2SubXSize: 700
OS2SubYSize: 650
OS2SubXOff: 0
OS2SubYOff: 140
OS2SupXSize: 700
OS2SupYSize: 650
OS2SupXOff: 0
OS2SupYOff: 477
OS2StrikeYSize: 50
OS2StrikeYPos: 250
OS2CapHeight: 708
OS2XHeight: 224
OS2Vendor: 'SUDT'
OS2CodePages: 20000001.00000000
OS2UnicodeRanges: 80000027.5000004b.00000000.00000000
Lookup: 258 0 0 "'kern' Horizontal Kerning in Latin lookup 0" { "'kern' Horizontal Kerning in Latin lookup 0 subtable"  } ['kern' ('DFLT' <'dflt' > 'latn' <'dflt' > ) ]
DEI: 91125
TtTable: prep
PUSHW_1
 511
SCANCTRL
PUSHB_1
 4
SCANTYPE
EndTTInstrs
ShortTable: maxp 16
  1
  0
  238
  141
  7
  0
  0
  2
  0
  1
  1
  0
  64
  0
  0
  0
EndShort

StartChar: C
Encoding: 67 67 4
Width: 428
GlyphClass: 2
Flags: W
LayerCount: 2
Fore
SplineSet
69 364 m 0,0,1
 122 364 122 364 185 381 c 1,2,3
 303 516 303 516 436.5 609.5 c 128,-1,4
 570 703 570 703 662 703 c 0,5,6
 708 703 708 703 708 680 c 0,7,8
 708 649 708 649 638 591 c 128,-1,9
 568 533 568 533 456 472 c 128,-1,10
 344 411 344 411 236 375 c 1,11,12
 155 281 155 281 105 193 c 128,-1,13
 55 105 55 105 55 48 c 0,14,15
 55 -32 55 -32 157 -32 c 0,16,17
 214 -32 214 -32 283 4 c 128,-1,18
 352 40 352 40 397 75 c 0,19,20
 407 82 407 82 414.5 82 c 128,-1,21
 422 82 422 82 422 74 c 0,22,23
 422 69 422 69 418 65 c 0,24,25
 371 31 371 31 334.5 9 c 128,-1,26
 298 -13 298 -13 239 -34.5 c 128,-1,27
 180 -56 180 -56 126 -56 c 0,28,29
 0 -56 0 -56 0 41 c 0,30,31
 0 158 0 158 162 354 c 1,32,33
 114 342 114 342 70 339 c 0,34,35
 58 341 58 341 58 352 c 128,-1,36
 58 363 58 363 69 364 c 0,0,1
631 675 m 0,37,38
 572 675 572 675 467.5 596.5 c 128,-1,39
 363 518 363 518 261 404 c 1,40,41
 354 437 354 437 448.5 490.5 c 128,-1,42
 543 544 543 544 600 591.5 c 128,-1,43
 657 639 657 639 657 661 c 0,44,45
 657 675 657 675 631 675 c 0,37,38
EndSplineSet
EndChar

StartChar: S
Encoding: 83 83 5
Width: 791
GlyphClass: 2
Flags: W
LayerCount: 2
Fore
SplineSet
325 99 m 1,0,1
 301 131 301 131 263 188 c 1,2,3
 0 214 0 214 0 298 c 0,4,5
 0 317 0 317 19.5 329 c 128,-1,6
 39 341 39 341 79 341 c 0,7,8
 179 341 179 341 278 214 c 1,9,10
 378 204 378 204 505 204 c 2,11,-1
 516 204 l 1,12,13
 644 281 644 281 754 359 c 1,14,15
 799 441 799 441 832 494.5 c 128,-1,16
 865 548 865 548 912 606 c 0,17,18
 1005 724 1005 724 1108 724 c 0,19,20
 1135 724 1135 724 1135 700 c 0,21,22
 1135 642 1135 642 1039 548 c 128,-1,23
 943 454 943 454 784 346 c 1,24,25
 736 254 736 254 712 212 c 1,26,27
 852 223 852 223 914 246 c 1,28,-1
 917 246 l 2,29,30
 921 246 921 246 921 240.5 c 128,-1,31
 921 235 921 235 914 225 c 1,32,33
 839 202 839 202 698 189 c 1,34,35
 644 96 644 96 593.5 44.5 c 128,-1,36
 543 -7 543 -7 492 -7 c 0,37,38
 410 -7 410 -7 337 84 c 1,39,40
 194 12 194 12 84 -26 c 0,41,42
 69 -31 69 -31 49.5 -31 c 128,-1,43
 30 -31 30 -31 30 -16 c 0,44,45
 30 -8 30 -8 38 -1.5 c 128,-1,46
 46 5 46 5 59 5 c 0,47,48
 139 5 139 5 325 99 c 1,0,1
516 179 m 1,49,50
 440 136 440 136 366 98 c 1,51,52
 433 15 433 15 488 15 c 0,53,54
 529 15 529 15 569.5 59 c 128,-1,55
 610 103 610 103 659 186 c 1,56,57
 598 181 598 181 516 179 c 1,49,50
1080 700 m 0,58,59
 1011 700 1011 700 941 608 c 0,60,61
 883 530 883 530 814 402 c 1,62,63
 940 495 940 495 1016 571.5 c 128,-1,64
 1092 648 1092 648 1092 690 c 0,65,66
 1092 700 1092 700 1080 700 c 0,58,59
48 302 m 0,67,68
 48 245 48 245 241 219 c 1,69,70
 163 323 163 323 84 323 c 0,71,72
 48 323 48 323 48 302 c 0,67,68
354 113 m 1,73,74
 416 146 416 146 473 179 c 1,75,-1
 469 179 l 2,76,77
 382 179 382 179 301 185 c 1,78,79
 339 132 339 132 354 113 c 1,73,74
727 308 m 1,80,81
 673 272 673 272 559 204 c 1,82,83
 636 206 636 206 672 209 c 1,84,85
 691 242 691 242 727 308 c 1,80,81
EndSplineSet
EndChar

StartChar: a
Encoding: 97 97 6
Width: 300
GlyphClass: 2
Flags: W
LayerCount: 2
Fore
SplineSet
215 120 m 0,0,1
 209 120 209 120 209 124.5 c 128,-1,2
 209 129 209 129 216 135 c 0,3,4
 249 162 249 162 249 184 c 0,5,6
 249 198 249 198 224 200 c 0,7,8
 179 199 179 199 116.5 135 c 128,-1,9
 54 71 54 71 54 39 c 0,10,11
 54 28 54 28 66.5 28 c 128,-1,12
 79 28 79 28 100 45 c 0,13,14
 119 57 119 57 171 105 c 0,15,16
 183 117 183 117 194 117 c 0,17,18
 208 117 208 117 208 104 c 0,19,20
 208 99 208 99 205 96 c 128,-1,21
 202 93 202 93 194 83.5 c 128,-1,22
 186 74 186 74 180 66 c 0,23,24
 162 40 162 40 162 32 c 0,25,26
 162 12 162 12 178 12 c 0,27,28
 199 12 199 12 257 50.5 c 128,-1,29
 315 89 315 89 363 128 c 2,30,-1
 411 166 l 2,31,32
 418 171 418 171 424 171 c 128,-1,33
 430 171 430 171 430 164 c 2,34,-1
 430 162 l 1,35,36
 353 97 353 97 267.5 40 c 128,-1,37
 182 -17 182 -17 155 -17 c 0,38,39
 123 -17 123 -17 123 17 c 0,40,41
 123 25 123 25 126 32 c 128,-1,42
 129 39 129 39 129 42 c 128,-1,43
 129 45 129 45 127 46 c 0,44,45
 124 46 124 46 88.5 19 c 128,-1,46
 53 -8 53 -8 26.5 -8 c 128,-1,47
 0 -8 0 -8 0 20 c 128,-1,48
 0 48 0 48 37.5 95.5 c 128,-1,49
 75 143 75 143 138 182 c 128,-1,50
 201 221 201 221 261 221 c 0,51,52
 275 221 275 221 284.5 214 c 128,-1,53
 294 207 294 207 294 192.5 c 128,-1,54
 294 178 294 178 265 149 c 128,-1,55
 236 120 236 120 215 120 c 0,0,1
EndSplineSet
EndChar

StartChar: b
Encoding: 98 98 7
Width: 232
GlyphClass: 2
Flags: W
LayerCount: 2
Fore
SplineSet
340 162 m 1,0,-1
 363 162 l 1,1,2
 270 78 270 78 179 66 c 1,3,4
 157 34 157 34 127.5 11 c 128,-1,5
 98 -12 98 -12 78 -12 c 0,6,7
 54 -12 54 -12 54 16 c 128,-1,8
 54 44 54 44 79 96 c 1,9,10
 35 135 35 135 35 183 c 0,11,12
 35 209 35 209 53 225 c 128,-1,13
 71 241 71 241 104 241 c 128,-1,14
 137 241 137 241 157 231 c 1,15,16
 255 383 255 383 382 552 c 2,17,-1
 425 609 l 2,18,19
 435 620 435 620 445 620 c 0,20,21
 460 620 460 620 462 605 c 2,22,-1
 462 598 l 2,23,24
 462 596 462 596 457 589 c 0,25,26
 260 330 260 330 182 215 c 1,27,28
 208 189 208 189 208 154 c 128,-1,29
 208 119 208 119 191 85 c 1,30,31
 259 93 259 93 340 162 c 1,0,-1
65 181 m 0,32,33
 65 151 65 151 92 122 c 1,34,35
 111 157 111 157 147 214 c 1,36,37
 133 222 133 222 116 222 c 0,38,39
 65 222 65 222 65 181 c 0,32,33
115 103 m 1,40,41
 139 88 139 88 164 85 c 1,42,43
 182 117 182 117 182 144 c 128,-1,44
 182 171 182 171 168 193 c 1,45,46
 134 143 134 143 115 103 c 1,40,41
111 32 m 0,47,48
 128 32 128 32 152 65 c 1,49,50
 128 65 128 65 104 78 c 1,51,52
 99 61 99 61 99 53 c 0,53,54
 99 32 99 32 111 32 c 0,47,48
EndSplineSet
EndChar

StartChar: c
Encoding: 99 99 8
Width: 244
GlyphClass: 2
Flags: W
LayerCount: 2
Fore
SplineSet
354 166 m 2,0,1
 362 171 362 171 367.5 171 c 128,-1,2
 373 171 373 171 373 164 c 2,3,-1
 373 162 l 1,4,5
 294 92 294 92 210 39 c 128,-1,6
 126 -14 126 -14 70 -14 c 0,7,8
 26 -14 26 -14 26 38.5 c 128,-1,9
 26 91 26 91 89.5 153 c 128,-1,10
 153 215 153 215 227 215 c 0,11,12
 249 213 249 213 254.5 208 c 128,-1,13
 260 203 260 203 260 194 c 128,-1,14
 260 185 260 185 241.5 161.5 c 128,-1,15
 223 138 223 138 208 138 c 0,16,17
 191 141 191 141 191 150 c 0,18,19
 191 154 191 154 200 163 c 0,20,21
 217 178 217 178 217 185 c 128,-1,22
 217 192 217 192 206 192 c 0,23,24
 171 191 171 191 118 134.5 c 128,-1,25
 65 78 65 78 65 41 c 0,26,27
 65 13 65 13 101.5 13 c 128,-1,28
 138 13 138 13 180 39 c 0,29,30
 254 84 254 84 329 146 c 2,31,-1
 354 166 l 2,0,1
EndSplineSet
EndChar

StartChar: d
Encoding: 100 100 9
Width: 276
GlyphClass: 2
Flags: W
LayerCount: 2
Fore
SplineSet
184 143 m 2,0,-1
 216 192 l 1,1,2
 213 193 213 193 210 193 c 0,3,4
 168 193 168 193 100 129 c 128,-1,5
 32 65 32 65 32 39 c 0,6,7
 32 32 32 32 40 32 c 0,8,9
 65 32 65 32 116 74.5 c 128,-1,10
 167 117 167 117 184 143 c 2,0,-1
407 162 m 1,11,12
 199 -6 199 -6 155 -6 c 0,13,14
 138 -6 138 -6 138 14 c 128,-1,15
 138 34 138 34 153 81 c 0,16,17
 153 82 153 82 151 82 c 0,18,19
 36 -13 36 -13 -2 -13 c 0,20,21
 -28 -13 -28 -13 -28 6 c 0,22,23
 -28 48 -28 48 62.5 129 c 128,-1,24
 153 210 153 210 207 210 c 0,25,26
 214 210 214 210 222 200 c 1,27,28
 245 234 245 234 480 569 c 0,29,30
 505 600 505 600 520.5 600 c 128,-1,31
 536 600 536 600 536 590 c 0,32,33
 536 565 536 565 364 354 c 0,34,35
 300 274 300 274 246.5 187.5 c 128,-1,36
 193 101 193 101 193 56 c 0,37,38
 193 37 193 37 204 37 c 0,39,40
 217 37 217 37 250 60 c 0,41,42
 318 109 318 109 369 150 c 2,43,-1
 388 166 l 2,44,45
 395 171 395 171 401 171 c 128,-1,46
 407 171 407 171 407 164 c 2,47,-1
 407 162 l 1,11,12
EndSplineSet
EndChar

StartChar: e
Encoding: 101 101 10
Width: 258
GlyphClass: 2
Flags: W
LayerCount: 2
Fore
SplineSet
369 166 m 2,0,1
 376 171 376 171 382 171 c 128,-1,2
 388 171 388 171 388 164 c 2,3,-1
 388 162 l 1,4,5
 284 76 284 76 215 33 c 128,-1,6
 146 -10 146 -10 90 -10 c 0,7,8
 45 -10 45 -10 45 34 c 0,9,10
 45 99 45 99 111 167.5 c 128,-1,11
 177 236 177 236 222 236 c 0,12,13
 247 236 247 236 247 208 c 0,14,15
 242 153 242 153 89 60 c 1,16,-1
 89 50 l 2,17,18
 89 17 89 17 123.5 17 c 128,-1,19
 158 17 158 17 198 40 c 0,20,21
 276 86 276 86 344 145 c 2,22,-1
 369 166 l 2,0,1
196 205 m 0,23,24
 174 205 174 205 139.5 168 c 128,-1,25
 105 131 105 131 93 84 c 1,26,27
 141 113 141 113 174 145.5 c 128,-1,28
 207 178 207 178 207 191.5 c 128,-1,29
 207 205 207 205 196 205 c 0,23,24
EndSplineSet
EndChar

StartChar: f
Encoding: 102 102 11
Width: 263
GlyphClass: 2
Flags: W
LayerCount: 2
Fore
SplineSet
-24.5 15.5 m 128,-1,1
 3 -3 3 -3 28.5 -3 c 128,-1,2
 54 -3 54 -3 72 0 c 1,3,-1
 93 28 l 1,4,5
 64 80 64 80 0 80 c 0,6,7
 -22 80 -22 80 -37 72.5 c 128,-1,8
 -52 65 -52 65 -52 49.5 c 128,-1,0
 -52 34 -52 34 -24.5 15.5 c 128,-1,1
108 -37 m 0,9,10
 108 -29 108 -29 106 -15 c 1,11,12
 -141 -366 -141 -366 -141 -400 c 0,13,14
 -141 -409 -141 -409 -129 -409 c 0,15,16
 -84 -409 -84 -409 -27.5 -346.5 c 128,-1,17
 29 -284 29 -284 68.5 -195.5 c 128,-1,18
 108 -107 108 -107 108 -37 c 0,9,10
393 162 m 1,19,20
 239 34 239 34 142 -2 c 1,21,22
 145 -16 145 -16 145 -31 c 0,23,24
 145 -89 145 -89 113.5 -162.5 c 128,-1,25
 82 -236 82 -236 36 -298 c 128,-1,26
 -10 -360 -10 -360 -64.5 -402.5 c 128,-1,27
 -119 -445 -119 -445 -162 -445 c 0,28,29
 -191 -445 -191 -445 -191 -422 c 0,30,31
 -191 -377 -191 -377 55 -25 c 1,32,33
 40 -26 40 -26 34 -26 c 0,34,35
 -17 -26 -17 -26 -47 -5 c 128,-1,36
 -77 16 -77 16 -77 41.5 c 128,-1,37
 -77 67 -77 67 -52.5 82 c 128,-1,38
 -28 97 -28 97 8 97 c 0,39,40
 73 97 73 97 112 55 c 1,41,-1
 339 366 l 2,42,43
 339 368 339 368 336 368 c 0,44,45
 249 276 249 276 183.5 213 c 128,-1,46
 118 150 118 150 96 133 c 2,47,-1
 74 116 l 1,48,-1
 69 131 l 1,49,50
 145 193 145 193 210 259 c 128,-1,51
 275 325 275 325 302 360 c 2,52,-1
 329 395 l 2,53,54
 398 482 398 482 414 500 c 0,55,56
 439 527 439 527 453 527 c 128,-1,57
 467 527 467 527 467 510 c 0,58,59
 467 495 467 495 408 410 c 128,-1,60
 349 325 349 325 316 278 c 0,61,62
 213 133 213 133 188 100 c 2,63,-1
 134 24 l 1,64,-1
 137 16 l 1,65,66
 212 43 212 43 301 109 c 2,67,-1
 374 166 l 2,68,69
 382 171 382 171 387.5 171 c 128,-1,70
 393 171 393 171 393 164 c 2,71,-1
 393 162 l 1,19,20
EndSplineSet
EndChar

StartChar: g
Encoding: 103 103 12
Width: 297
GlyphClass: 2
Flags: W
LayerCount: 2
Fore
SplineSet
409 166 m 2,0,1
 416 171 416 171 422 171 c 128,-1,2
 428 171 428 171 428 164 c 2,3,-1
 428 162 l 1,4,5
 331 82 331 82 276 46 c 2,6,-1
 76 -84 l 1,7,-1
 14 -171 l 2,8,9
 -130 -368 -130 -368 -130 -383 c 1,10,11
 -146 -418 -146 -418 -161 -418 c 0,12,13
 -180 -418 -180 -418 -180 -393 c 128,-1,14
 -180 -368 -180 -368 -155.5 -326 c 128,-1,15
 -131 -284 -131 -284 -107 -258 c 2,16,-1
 -12 -158 l 1,17,18
 0 -139 0 -139 37 -88 c 128,-1,19
 74 -37 74 -37 86 -20 c 2,20,-1
 129 44 l 1,21,-1
 131 48 l 2,22,23
 131 50 131 50 129 50 c 0,24,25
 70 1 70 1 31 1 c 128,-1,26
 -8 1 -8 1 -8 23.5 c 128,-1,27
 -8 46 -8 46 22 83 c 128,-1,28
 52 120 52 120 94.5 155 c 128,-1,29
 137 190 137 190 188.5 215.5 c 128,-1,30
 240 241 240 241 279.5 241 c 128,-1,31
 319 241 319 241 319 213 c 0,32,33
 319 193 319 193 281.5 165 c 128,-1,34
 244 137 244 137 235.5 137 c 128,-1,35
 227 137 227 137 227 141 c 0,36,37
 227 147 227 147 235 152 c 0,38,39
 269 176 269 176 269 197.5 c 128,-1,40
 269 219 269 219 251 219 c 0,41,42
 207 219 207 219 128.5 144.5 c 128,-1,43
 50 70 50 70 50 39 c 0,44,45
 50 30 50 30 64.5 30 c 128,-1,46
 79 30 79 30 114 53.5 c 128,-1,47
 149 77 149 77 167 99 c 2,48,-1
 194 133 l 2,49,50
 199 140 199 140 207 140 c 128,-1,51
 215 140 215 140 221 135 c 128,-1,52
 227 130 227 130 227 125 c 2,53,-1
 106 -43 l 1,54,-1
 254 50 l 2,55,56
 320 90 320 90 386 146 c 2,57,-1
 409 166 l 2,0,1
EndSplineSet
EndChar

StartChar: h
Encoding: 104 104 13
Width: 323
GlyphClass: 2
Flags: W
LayerCount: 2
Fore
SplineSet
436 167 m 2,0,1
 443 172 443 172 449 172 c 128,-1,2
 455 172 455 172 455 166 c 2,3,-1
 455 163 l 1,4,5
 376 97 376 97 300 45 c 1,6,7
 224 -13 224 -13 194.5 -13 c 128,-1,8
 165 -13 165 -13 165 11 c 0,9,10
 165 37 165 37 203 99 c 128,-1,11
 241 161 241 161 241 165.5 c 128,-1,12
 241 170 241 170 237 170 c 0,13,14
 224 170 224 170 157.5 112.5 c 128,-1,15
 91 55 91 55 41 6 c 0,16,17
 22 -11 22 -11 14.5 -11 c 128,-1,18
 7 -11 7 -11 7 0 c 128,-1,19
 7 11 7 11 20 28 c 2,20,-1
 369 560 l 2,21,22
 380 577 380 577 398.5 577 c 128,-1,23
 417 577 417 577 417 565 c 0,24,25
 417 558 417 558 411.5 550 c 128,-1,26
 406 542 406 542 344 454.5 c 128,-1,27
 282 367 282 367 272.5 351 c 128,-1,28
 263 335 263 335 185.5 219 c 128,-1,29
 108 103 108 103 103.5 96.5 c 128,-1,30
 99 90 99 90 99 86 c 128,-1,31
 99 82 99 82 102.5 82 c 128,-1,32
 106 82 106 82 107 83 c 0,33,34
 139 115 139 115 194.5 157.5 c 128,-1,35
 250 200 250 200 271 200 c 0,36,37
 279 200 279 200 285 194.5 c 128,-1,38
 291 189 291 189 291 176.5 c 128,-1,39
 291 164 291 164 252 108.5 c 128,-1,40
 213 53 213 53 213 36.5 c 128,-1,41
 213 20 213 20 223.5 20 c 128,-1,42
 234 20 234 20 276 48 c 0,43,44
 351 98 351 98 414 149 c 2,45,-1
 436 167 l 2,0,1
EndSplineSet
EndChar

StartChar: i
Encoding: 105 105 14
Width: 188
GlyphClass: 2
Flags: W
LayerCount: 2
Fore
SplineSet
234.5 296 m 128,-1,1
 240 290 240 290 240 279 c 128,-1,2
 240 268 240 268 225 251 c 128,-1,3
 210 234 210 234 199 234 c 128,-1,4
 188 234 188 234 183 240.5 c 128,-1,5
 178 247 178 247 178 255.5 c 128,-1,6
 178 264 178 264 194 283 c 128,-1,7
 210 302 210 302 219.5 302 c 128,-1,0
 229 302 229 302 234.5 296 c 128,-1,1
302 167 m 2,8,9
 310 172 310 172 314.5 172 c 128,-1,10
 319 172 319 172 319 166 c 2,11,-1
 319 163 l 1,12,13
 323 163 323 163 265.5 119 c 128,-1,14
 208 75 208 75 142.5 31 c 128,-1,15
 77 -13 77 -13 60 -13 c 0,16,17
 31 -13 31 -13 31 11 c 0,18,19
 31 40 31 40 81 120.5 c 128,-1,20
 131 201 131 201 154 201 c 0,21,22
 171 201 171 201 171 188 c 128,-1,23
 171 175 171 175 125 117 c 128,-1,24
 79 59 79 59 79 34 c 0,25,26
 79 20 79 20 89.5 20 c 128,-1,27
 100 20 100 20 142 48 c 0,28,29
 217 98 217 98 280 149 c 2,30,-1
 302 167 l 2,8,9
EndSplineSet
EndChar

StartChar: j
Encoding: 106 106 15
Width: 186
GlyphClass: 2
Flags: W
LayerCount: 2
Fore
SplineSet
-82 -111 m 1,0,1
 -71 -116 -71 -116 -63 -121 c 1,2,3
 -57 -109 -57 -109 -49 -101 c 1,4,5
 -70 -107 -70 -107 -81 -109 c 0,6,7
 -81 -110 -81 -110 -82 -111 c 1,0,1
234.5 296 m 128,-1,9
 240 290 240 290 240 279 c 128,-1,10
 240 268 240 268 225 251 c 128,-1,11
 210 234 210 234 199 234 c 128,-1,12
 188 234 188 234 183 240.5 c 128,-1,13
 178 247 178 247 178 255.5 c 128,-1,14
 178 264 178 264 194 283 c 128,-1,15
 210 302 210 302 219.5 302 c 128,-1,8
 229 302 229 302 234.5 296 c 128,-1,9
-54 -195 m 0,16,17
 -54 -181 -54 -181 -57 -169 c 1,18,19
 -214 -382 -214 -382 -214 -402 c 0,20,21
 -214 -411 -214 -411 -206 -411 c 0,22,23
 -186 -411 -186 -411 -149.5 -376.5 c 128,-1,24
 -113 -342 -113 -342 -83.5 -289.5 c 128,-1,25
 -54 -237 -54 -237 -54 -195 c 0,16,17
-76 -139 m 1,26,27
 -101 -114 -101 -114 -143 -114 c 0,28,29
 -156 -112 -156 -112 -156 -103 c 0,30,31
 -155 -95 -155 -95 -144 -95 c 0,32,33
 -142 -95 -142 -95 -112 -98 c 0,34,35
 -86 -98 -86 -98 -35 -81 c 1,36,-1
 132 152 l 2,37,38
 134 155 134 155 134 158.5 c 128,-1,39
 134 162 134 162 131 162 c 128,-1,40
 128 162 128 162 125 159 c 2,41,-1
 73 116 l 1,42,-1
 69 131 l 1,43,-1
 120 174 l 1,44,45
 156 210 156 210 170 210 c 0,46,47
 175 210 175 210 180 205.5 c 128,-1,48
 185 201 185 201 185 193 c 0,49,50
 185 164 185 164 28 -52 c 1,51,52
 68 -30 68 -30 85 -7 c 0,53,54
 89 -2 89 -2 95 -2 c 128,-1,55
 101 -2 101 -2 101 -9 c 0,56,57
 101 -42 101 -42 8 -80 c 1,58,-1
 -38 -143 l 1,59,60
 -20 -165 -20 -165 -20 -206 c 128,-1,61
 -20 -247 -20 -247 -61 -306.5 c 128,-1,62
 -102 -366 -102 -366 -153 -405 c 128,-1,63
 -204 -444 -204 -444 -233 -444 c 128,-1,64
 -262 -444 -262 -444 -262 -418 c 0,65,66
 -262 -399 -262 -399 -76 -139 c 1,26,27
EndSplineSet
EndChar

StartChar: k
Encoding: 107 107 16
Width: 318
GlyphClass: 2
Flags: W
LayerCount: 2
Fore
SplineSet
335 281 m 0,0,1
 335 290 335 290 322.5 290 c 128,-1,2
 310 290 310 290 273 263.5 c 128,-1,3
 236 237 236 237 206 210 c 2,4,-1
 177 184 l 2,5,6
 177 182 177 182 183 182 c 0,7,8
 193 182 193 182 196 166.5 c 128,-1,9
 199 151 199 151 207 151 c 0,10,11
 233 151 233 151 284 204 c 128,-1,12
 335 257 335 257 335 281 c 0,0,1
430 166 m 2,13,14
 437 171 437 171 443 171 c 128,-1,15
 449 171 449 171 449 164 c 2,16,-1
 449 162 l 1,17,18
 370 92 370 92 291 42 c 1,19,20
 232 -2 232 -2 195.5 -2 c 128,-1,21
 159 -2 159 -2 144.5 25 c 128,-1,22
 130 52 130 52 130 81.5 c 128,-1,23
 130 111 130 111 136 122 c 128,-1,24
 142 133 142 133 142 135.5 c 128,-1,25
 142 138 142 138 136 138 c 0,26,27
 127 138 127 138 74 69 c 128,-1,28
 21 0 21 0 15 0 c 128,-1,29
 9 0 9 0 3.5 3.5 c 128,-1,30
 -2 7 -2 7 -2 13 c 128,-1,31
 -2 19 -2 19 12.5 42 c 128,-1,32
 27 65 27 65 107 177 c 128,-1,33
 187 289 187 289 190 294.5 c 128,-1,34
 193 300 193 300 193 302 c 128,-1,35
 193 304 193 304 189.5 304 c 128,-1,36
 186 304 186 304 184 302.5 c 128,-1,37
 182 301 182 301 154 282 c 0,38,39
 91 239 91 239 67 239 c 128,-1,40
 43 239 43 239 43 258 c 0,41,42
 43 274 43 274 53.5 286 c 128,-1,43
 64 298 64 298 77 298 c 0,44,45
 83 298 83 298 87 284.5 c 128,-1,46
 91 271 91 271 100 271 c 128,-1,47
 109 271 109 271 122 278 c 128,-1,48
 135 285 135 285 148.5 295 c 128,-1,49
 162 305 162 305 179.5 319.5 c 128,-1,50
 197 334 197 334 208 344 c 0,51,52
 241 374 241 374 248 381 c 0,53,54
 267 413 267 413 392 564 c 0,55,56
 407 583 407 583 421.5 583 c 128,-1,57
 436 583 436 583 436 576 c 128,-1,58
 436 569 436 569 431 562.5 c 128,-1,59
 426 556 426 556 356 465.5 c 128,-1,60
 286 375 286 375 215 280.5 c 128,-1,61
 144 186 144 186 144 180 c 128,-1,62
 144 174 144 174 149 174 c 0,63,64
 164 190 164 190 187.5 213.5 c 128,-1,65
 211 237 211 237 268 276.5 c 128,-1,66
 325 316 325 316 358.5 316 c 128,-1,67
 392 316 392 316 392 298 c 0,68,69
 392 265 392 265 315 200 c 128,-1,70
 238 135 238 135 208 135 c 1,71,-1
 189 139 l 2,72,73
 180 139 180 139 174 123.5 c 128,-1,74
 168 108 168 108 168 88 c 0,75,76
 168 27 168 27 214 27 c 0,77,78
 238 27 238 27 268 46 c 0,79,80
 332 85 332 85 405 146 c 2,81,-1
 430 166 l 2,13,14
EndSplineSet
EndChar

StartChar: l
Encoding: 108 108 17
Width: 242
GlyphClass: 2
Flags: W
LayerCount: 2
Fore
SplineSet
353 166 m 2,0,1
 360 171 360 171 366 171 c 128,-1,2
 372 171 372 171 372 164 c 2,3,-1
 372 162 l 1,4,5
 268 76 268 76 214 42 c 1,6,7
 144 -11 144 -11 96 -11 c 0,8,9
 54 -11 54 -11 54 39 c 0,10,11
 54 106 54 106 140.5 237.5 c 128,-1,12
 227 369 227 369 335 474 c 128,-1,13
 443 579 443 579 498 579 c 0,14,15
 523 579 523 579 523 557 c 0,16,17
 523 502 523 502 391.5 375.5 c 128,-1,18
 260 249 260 249 133 160 c 1,19,20
 96 89 96 89 96 52 c 128,-1,21
 96 15 96 15 122 15 c 128,-1,22
 148 15 148 15 190 45 c 1,23,24
 261 87 261 87 328 145 c 2,25,-1
 353 166 l 2,0,1
473 547 m 0,26,27
 431 547 431 547 324 426 c 128,-1,28
 217 305 217 305 147 184 c 1,29,30
 262 266 262 266 372 384.5 c 128,-1,31
 482 503 482 503 482 538 c 0,32,33
 482 547 482 547 473 547 c 0,26,27
EndSplineSet
EndChar

StartChar: m
Encoding: 109 109 18
Width: 457
GlyphClass: 2
Flags: W
LayerCount: 2
Fore
SplineSet
117 174 m 2,0,-1
 115 185 l 2,1,2
 115 190 115 190 136 190 c 0,3,4
 148 190 148 190 148 175 c 128,-1,5
 148 160 148 160 113.5 108.5 c 128,-1,6
 79 57 79 57 79 55 c 128,-1,7
 79 53 79 53 83 53 c 128,-1,8
 87 53 87 53 175.5 123 c 128,-1,9
 264 193 264 193 282 193 c 128,-1,10
 300 193 300 193 300 180.5 c 128,-1,11
 300 168 300 168 290 152.5 c 128,-1,12
 280 137 280 137 248 96.5 c 128,-1,13
 216 56 216 56 214 53 c 128,-1,14
 212 50 212 50 212 46 c 128,-1,15
 212 42 212 42 218.5 42 c 128,-1,16
 225 42 225 42 317 110 c 128,-1,17
 409 178 409 178 422 178 c 128,-1,18
 435 178 435 178 435 167 c 0,19,20
 435 147 435 147 391 97 c 128,-1,21
 347 47 347 47 347 33.5 c 128,-1,22
 347 20 347 20 357.5 20 c 128,-1,23
 368 20 368 20 410 48 c 0,24,25
 485 98 485 98 548 149 c 2,26,-1
 570 167 l 2,27,28
 578 172 578 172 583.5 172 c 128,-1,29
 589 172 589 172 589 166 c 2,30,-1
 589 163 l 1,31,32
 378 -13 378 -13 328 -13 c 0,33,34
 299 -13 299 -13 299 11 c 0,35,36
 299 31 299 31 328 70 c 128,-1,37
 357 109 357 109 357 112.5 c 128,-1,38
 357 116 357 116 354.5 116 c 128,-1,39
 352 116 352 116 272.5 59 c 128,-1,40
 193 2 193 2 178 2 c 0,41,42
 171 2 171 2 166 7.5 c 128,-1,43
 161 13 161 13 161 19 c 0,44,45
 161 37 161 37 204 92 c 0,46,47
 247 146 247 146 247 151 c 256,48,49
 247 156 247 156 241 156 c 0,50,51
 234 156 234 156 99 46 c 2,52,-1
 49 6 l 2,53,54
 36 -5 36 -5 29.5 -5 c 128,-1,55
 23 -5 23 -5 17 -1.5 c 128,-1,56
 11 2 11 2 11 9 c 128,-1,57
 11 16 11 16 28.5 43 c 128,-1,58
 46 70 46 70 74 109 c 0,59,60
 117 167 117 167 117 174 c 2,0,-1
EndSplineSet
EndChar

StartChar: n
Encoding: 110 110 19
Width: 386
GlyphClass: 2
Flags: W
LayerCount: 2
Fore
SplineSet
518 163 m 1,0,1
 307 -13 307 -13 257 -13 c 0,2,3
 228 -13 228 -13 228 11 c 128,-1,4
 228 35 228 35 249.5 68 c 128,-1,5
 271 101 271 101 292.5 126.5 c 128,-1,6
 314 152 314 152 314 157 c 128,-1,7
 314 162 314 162 311 162 c 0,8,9
 218 100 218 100 200.5 86 c 128,-1,10
 183 72 183 72 143.5 40 c 128,-1,11
 104 8 104 8 92 0 c 128,-1,12
 80 -8 80 -8 66 -8 c 256,13,14
 52 -8 52 -8 52 4 c 0,15,16
 52 18 52 18 108 92 c 0,17,18
 162 166 162 166 162 175 c 0,19,20
 162 177 162 177 158.5 177 c 128,-1,21
 155 177 155 177 72 116 c 1,22,-1
 68 131 l 1,23,24
 139 188 139 188 164 204 c 128,-1,25
 189 220 189 220 204.5 220 c 128,-1,26
 220 220 220 220 220 205 c 0,27,28
 220 195 220 195 163.5 123.5 c 128,-1,29
 107 52 107 52 107 46.5 c 128,-1,30
 107 41 107 41 110.5 41 c 128,-1,31
 114 41 114 41 224.5 121.5 c 128,-1,32
 335 202 335 202 359 202 c 0,33,34
 366 202 366 202 372.5 196.5 c 128,-1,35
 379 191 379 191 379 186 c 0,36,37
 379 174 379 174 326 106.5 c 128,-1,38
 273 39 273 39 273 30 c 128,-1,39
 273 21 273 21 285.5 21 c 128,-1,40
 298 21 298 21 339 48 c 0,41,42
 414 97 414 97 477 149 c 2,43,-1
 499 167 l 2,44,45
 506 172 506 172 512 172 c 128,-1,46
 518 172 518 172 518 166 c 2,47,-1
 518 163 l 1,0,1
EndSplineSet
EndChar

StartChar: o
Encoding: 111 111 20
Width: 231
GlyphClass: 2
Flags: W
LayerCount: 2
Fore
SplineSet
189 86 m 0,0,1
 245 86 245 86 323 149 c 1,2,-1
 340 144 l 1,3,4
 242 62 242 62 171 62 c 0,5,6
 163 62 163 62 159 63 c 0,7,8
 132 30 132 30 100 9.5 c 128,-1,9
 68 -11 68 -11 44 -11 c 0,10,11
 6 -11 6 -11 6 31.5 c 128,-1,12
 6 74 6 74 77 145 c 1,13,14
 65 174 65 174 65 206 c 128,-1,15
 65 238 65 238 88 258 c 128,-1,16
 111 278 111 278 141.5 278 c 128,-1,17
 172 278 172 278 193 258 c 128,-1,18
 214 238 214 238 214 201 c 0,19,20
 214 144 214 144 177 87 c 1,21,22
 181 86 181 86 189 86 c 0,0,1
157 96 m 1,23,24
 188 148 188 148 188 184.5 c 128,-1,25
 188 221 188 221 170 238.5 c 128,-1,26
 152 256 152 256 135 256 c 0,27,28
 100 256 100 256 100 220 c 128,-1,29
 100 184 100 184 116 148.5 c 128,-1,30
 132 113 132 113 157 96 c 1,23,24
47 37 m 0,31,32
 47 17 47 17 73 17 c 128,-1,33
 99 17 99 17 139 70 c 1,34,35
 112 84 112 84 91 119 c 1,36,37
 47 71 47 71 47 37 c 0,31,32
EndSplineSet
EndChar

StartChar: p
Encoding: 112 112 21
Width: 336
GlyphClass: 2
Flags: W
LayerCount: 2
Fore
SplineSet
468 163 m 1,0,1
 257 -13 257 -13 207 -13 c 0,2,3
 178 -13 178 -13 178 10.5 c 128,-1,4
 178 34 178 34 233 98.5 c 128,-1,5
 288 163 288 163 288 181 c 0,6,7
 286 183 286 183 284 183 c 0,8,9
 256 183 256 183 194 140 c 1,10,11
 -208 -423 -208 -423 -263 -423 c 0,12,13
 -274 -423 -274 -423 -281.5 -415.5 c 128,-1,14
 -289 -408 -289 -408 -289 -393 c 0,15,16
 -289 -324 -289 -324 -153 -162 c 128,-1,17
 -17 0 -17 0 126 111 c 1,18,-1
 214 239 l 1,19,-1
 214 240 l 2,20,21
 214 243 214 243 210 243 c 0,22,23
 190 208 190 208 102 138 c 2,24,-1
 73 116 l 1,25,-1
 69 131 l 1,26,27
 145 193 145 193 210 259 c 128,-1,28
 275 325 275 325 302 360 c 2,29,-1
 329 395 l 2,30,31
 343 414 343 414 360 414 c 128,-1,32
 377 414 377 414 377 404 c 0,33,34
 377 400 377 400 374.5 397 c 128,-1,35
 372 394 372 394 351.5 364.5 c 128,-1,36
 331 335 331 335 291 278.5 c 128,-1,37
 251 222 251 222 216 172 c 1,38,39
 274 205 274 205 303.5 205 c 128,-1,40
 333 205 333 205 333 193 c 0,41,42
 333 153 333 153 253 70 c 0,43,44
 226 42 226 42 226 33.5 c 128,-1,45
 226 25 226 25 240.5 25 c 128,-1,46
 255 25 255 25 292 50 c 0,47,48
 365 99 365 99 427 149 c 2,49,-1
 449 167 l 2,50,51
 456 172 456 172 462 172 c 128,-1,52
 468 172 468 172 468 166 c 2,53,-1
 468 163 l 1,0,1
-250 -390 m 0,54,55
 -219 -390 -219 -390 93 62 c 1,56,57
 -39 -50 -39 -50 -147.5 -182.5 c 128,-1,58
 -256 -315 -256 -315 -256 -384 c 0,59,60
 -256 -390 -256 -390 -250 -390 c 0,54,55
EndSplineSet
EndChar

StartChar: q
Encoding: 113 113 22
Width: 308
GlyphClass: 2
Flags: W
LayerCount: 2
Fore
SplineSet
419 166 m 2,0,1
 426 171 426 171 432 171 c 128,-1,2
 438 171 438 171 438 164 c 2,3,-1
 438 162 l 1,4,5
 349 88 349 88 271.5 36 c 128,-1,6
 194 -16 194 -16 139 -16 c 0,7,8
 134 -17 134 -17 134 -29 c 0,9,10
 134 -84 134 -84 80.5 -182.5 c 128,-1,11
 27 -281 27 -281 -42 -357.5 c 128,-1,12
 -111 -434 -111 -434 -150 -434 c 0,13,14
 -161 -434 -161 -434 -170 -425.5 c 128,-1,15
 -179 -417 -179 -417 -179 -406 c 0,16,17
 -179 -387 -179 -387 -70 -235 c 128,-1,18
 39 -83 39 -83 127 33 c 0,19,20
 128 35 128 35 128 38 c 128,-1,21
 128 41 128 41 124 41 c 0,22,23
 75 -2 75 -2 33 -2 c 0,24,25
 5 -2 5 -2 5 21 c 0,26,27
 5 53 5 53 49 106 c 128,-1,28
 93 159 93 159 162.5 203 c 128,-1,29
 232 247 232 247 291 247 c 0,30,31
 322 247 322 247 322 225.5 c 128,-1,32
 322 204 322 204 292 173.5 c 128,-1,33
 262 143 262 143 241 143 c 0,34,35
 237 143 237 143 237 149.5 c 128,-1,36
 237 156 237 156 250 163 c 128,-1,37
 263 170 263 170 275 185 c 128,-1,38
 287 200 287 200 287 211 c 0,39,40
 287 226 287 226 267 226 c 0,41,42
 219 226 219 226 138.5 152 c 128,-1,43
 58 78 58 78 58 43 c 0,44,45
 58 30 58 30 78.5 30 c 128,-1,46
 99 30 99 30 176 97 c 0,47,48
 196 117 196 117 202.5 118 c 128,-1,49
 209 119 209 119 219 119 c 128,-1,50
 229 119 229 119 228.5 108.5 c 128,-1,51
 228 98 228 98 191.5 56.5 c 128,-1,52
 155 15 155 15 155 11.5 c 128,-1,53
 155 8 155 8 159 7 c 0,54,55
 179 7 179 7 205 17.5 c 128,-1,56
 231 28 231 28 247 38 c 2,57,-1
 263 49 l 2,58,59
 319 85 319 85 396 147 c 2,60,-1
 419 166 l 2,0,1
-129 -389 m 0,61,62
 -129 -397 -129 -397 -123 -397 c 0,63,64
 -108 -397 -108 -397 -70.5 -360 c 128,-1,65
 -33 -323 -33 -323 5.5 -272.5 c 128,-1,66
 44 -222 44 -222 74 -162.5 c 128,-1,67
 104 -103 104 -103 104 -65 c 0,68,69
 104 -59 104 -59 102 -59 c 0,70,71
 88 -59 88 -59 -20.5 -212.5 c 128,-1,72
 -129 -366 -129 -366 -129 -389 c 0,61,62
EndSplineSet
EndChar

StartChar: r
Encoding: 114 114 23
Width: 221
GlyphClass: 2
Flags: W
LayerCount: 2
Fore
SplineSet
333 166 m 2,0,1
 340 171 340 171 346 171 c 128,-1,2
 352 171 352 171 352 164 c 2,3,-1
 352 162 l 1,4,5
 277 102 277 102 204 49.5 c 128,-1,6
 131 -3 131 -3 97 -3 c 0,7,8
 72 -3 72 -3 72 24 c 128,-1,9
 72 51 72 51 96 78 c 128,-1,10
 120 105 120 105 143.5 125 c 128,-1,11
 167 145 167 145 167 151.5 c 128,-1,12
 167 158 167 158 159.5 166.5 c 128,-1,13
 152 175 152 175 147 178 c 1,14,15
 130 161 130 161 73 116 c 1,16,-1
 69 131 l 1,17,18
 132 181 132 181 142 198 c 1,19,-1
 142 207 l 2,20,21
 142 232 142 232 147 241 c 128,-1,22
 152 250 152 250 171 266 c 128,-1,23
 190 282 190 282 197 282 c 128,-1,24
 204 282 204 282 209.5 277 c 128,-1,25
 215 272 215 272 215 267 c 128,-1,26
 215 262 215 262 211.5 255.5 c 128,-1,27
 208 249 208 249 204.5 244.5 c 128,-1,28
 201 240 201 240 195 233.5 c 128,-1,29
 189 227 189 227 187.5 224.5 c 128,-1,30
 186 222 186 222 184.5 216 c 128,-1,31
 183 210 183 210 178 206 c 128,-1,32
 173 202 173 202 173 196 c 128,-1,33
 173 190 173 190 181 169.5 c 128,-1,34
 189 149 189 149 189 139.5 c 128,-1,35
 189 130 189 130 152 94.5 c 128,-1,36
 115 59 115 59 115 37 c 0,37,38
 115 25 115 25 126 25 c 0,39,40
 140 25 140 25 178 50 c 2,41,-1
 190 58 l 2,42,43
 255 103 255 103 312 149 c 2,44,-1
 333 166 l 2,0,1
EndSplineSet
EndChar

StartChar: s
Encoding: 115 115 24
Width: 199
GlyphClass: 2
Flags: W
LayerCount: 2
Fore
SplineSet
310 166 m 2,0,1
 318 171 318 171 323.5 171 c 128,-1,2
 329 171 329 171 329 164 c 2,3,-1
 329 162 l 1,4,5
 252 97 252 97 166.5 40 c 128,-1,6
 81 -17 81 -17 58 -17 c 128,-1,7
 35 -17 35 -17 19.5 -8.5 c 128,-1,8
 4 0 4 0 4 11 c 128,-1,9
 4 22 4 22 10 29.5 c 128,-1,10
 16 37 16 37 21 37 c 128,-1,11
 26 37 26 37 37.5 21.5 c 128,-1,12
 49 6 49 6 60 6 c 0,13,14
 83 6 83 6 96 55 c 128,-1,15
 109 104 109 104 109 122.5 c 128,-1,16
 109 141 109 141 106.5 141 c 128,-1,17
 104 141 104 141 102 139 c 2,18,-1
 73 116 l 1,19,-1
 69 131 l 1,20,21
 132 181 132 181 142 198 c 0,22,23
 148 214 148 214 159 214 c 0,24,25
 166 214 166 214 166 209 c 128,-1,26
 166 204 166 204 159 187.5 c 128,-1,27
 152 171 152 171 140.5 113 c 128,-1,28
 129 55 129 55 129 46 c 128,-1,29
 129 37 129 37 134 37 c 0,30,31
 204 80 204 80 282 144 c 2,32,-1
 310 166 l 2,0,1
EndSplineSet
EndChar

StartChar: t
Encoding: 116 116 25
Width: 189
GlyphClass: 2
Flags: W
LayerCount: 2
Fore
SplineSet
651 424 m 2,0,-1
 508 431 l 1,1,2
 420 431 420 431 333 424 c 1,3,-1
 338 404 l 2,4,5
 338 393 338 393 273 320.5 c 128,-1,6
 208 248 208 248 143 162.5 c 128,-1,7
 78 77 78 77 78 36 c 0,8,9
 78 20 78 20 89.5 20 c 128,-1,10
 101 20 101 20 142 48 c 0,11,12
 218 98 218 98 281 149 c 2,13,-1
 303 167 l 2,14,15
 310 172 310 172 315 172 c 128,-1,16
 320 172 320 172 320 166 c 2,17,-1
 320 163 l 1,18,19
 324 163 324 163 266.5 119 c 128,-1,20
 209 75 209 75 143.5 31 c 128,-1,21
 78 -13 78 -13 61 -13 c 0,22,23
 32 -13 32 -13 32 13 c 0,24,25
 32 51 32 51 74.5 118 c 128,-1,26
 117 185 117 185 167.5 244.5 c 128,-1,27
 218 304 218 304 263.5 357 c 128,-1,28
 309 410 309 410 313 422 c 1,29,30
 203 412 203 412 144 398 c 2,31,-1
 124 394 l 2,32,33
 116 393 116 393 116 379 c 0,34,35
 116 373 116 373 102 373 c 128,-1,36
 88 373 88 373 67.5 379.5 c 128,-1,37
 47 386 47 386 47 398 c 128,-1,38
 47 410 47 410 67 414 c 0,39,40
 215 440 215 440 277 445.5 c 128,-1,41
 339 451 339 451 359.5 452.5 c 128,-1,42
 380 454 380 454 423.5 455 c 128,-1,43
 467 456 467 456 482 456 c 0,44,45
 527 458 527 458 587.5 458 c 128,-1,46
 648 458 648 458 661 453 c 128,-1,47
 674 448 674 448 674 434 c 0,48,49
 674 424 674 424 651 424 c 2,0,-1
EndSplineSet
EndChar

StartChar: u
Encoding: 117 117 26
Width: 289
GlyphClass: 2
Flags: W
LayerCount: 2
Fore
SplineSet
132 13 m 0,0,1
 132 28 132 28 146.5 52 c 128,-1,2
 161 76 161 76 162 80 c 128,-1,3
 163 84 163 84 160 84 c 128,-1,4
 157 84 157 84 151.5 78.5 c 128,-1,5
 146 73 146 73 90.5 36.5 c 128,-1,6
 35 0 35 0 14 0 c 0,7,8
 0 0 0 0 0 18 c 128,-1,9
 0 36 0 36 56 111 c 128,-1,10
 112 186 112 186 135 186 c 0,11,12
 140 186 140 186 144.5 181.5 c 128,-1,13
 149 177 149 177 149 174.5 c 128,-1,14
 149 172 149 172 97.5 113 c 128,-1,15
 46 54 46 54 46 37 c 0,16,17
 46 33 46 33 50 33 c 0,18,19
 69 33 69 33 132 84 c 128,-1,20
 195 135 195 135 221.5 163 c 128,-1,21
 248 191 248 191 263 191 c 128,-1,22
 278 191 278 191 278 178 c 0,23,24
 278 170 278 170 272 162 c 128,-1,25
 266 154 266 154 249.5 133.5 c 128,-1,26
 233 113 233 113 219 95 c 0,27,28
 180 45 180 45 180 32.5 c 128,-1,29
 180 20 180 20 190.5 20 c 128,-1,30
 201 20 201 20 242 48 c 0,31,32
 318 98 318 98 381 149 c 2,33,-1
 403 167 l 2,34,35
 410 172 410 172 415 172 c 128,-1,36
 420 172 420 172 420 166 c 2,37,-1
 420 163 l 1,38,39
 424 163 424 163 366.5 119 c 128,-1,40
 309 75 309 75 243.5 31 c 128,-1,41
 178 -13 178 -13 161 -13 c 0,42,43
 132 -13 132 -13 132 13 c 0,0,1
EndSplineSet
EndChar

StartChar: v
Encoding: 118 118 27
Width: 256
GlyphClass: 2
Flags: W
LayerCount: 2
Fore
SplineSet
288 159 m 1,0,-1
 272 166 l 1,1,2
 253 166 253 166 65 3 c 0,3,4
 47 -13 47 -13 38.5 -13 c 128,-1,5
 30 -13 30 -13 25.5 -7 c 128,-1,6
 21 -1 21 -1 21 6.5 c 128,-1,7
 21 14 21 14 55 74.5 c 128,-1,8
 89 135 89 135 89 139.5 c 128,-1,9
 89 144 89 144 85 144 c 0,10,11
 71 137 71 137 64 137 c 128,-1,12
 57 137 57 137 57 141.5 c 128,-1,13
 57 146 57 146 61 150 c 0,14,15
 103 183 103 183 119.5 183 c 128,-1,16
 136 183 136 183 136 164 c 128,-1,17
 136 145 136 145 111 102.5 c 128,-1,18
 86 60 86 60 86 53 c 128,-1,19
 86 46 86 46 89.5 46 c 128,-1,20
 93 46 93 46 98 50 c 128,-1,21
 103 54 103 54 151 96 c 0,22,23
 314 224 314 224 329 224 c 0,24,25
 330 224 330 224 330 224 c 2,26,27
 336 224 336 224 342 220 c 128,-1,28
 348 216 348 216 348 208 c 128,-1,29
 348 200 348 200 325 179.5 c 128,-1,30
 302 159 302 159 288 159 c 1,0,-1
EndSplineSet
EndChar

StartChar: w
Encoding: 119 119 28
Width: 374
GlyphClass: 2
Flags: W
LayerCount: 2
Fore
SplineSet
353 132 m 1,0,-1
 347 164 l 2,1,2
 347 172 347 172 351 178 c 128,-1,3
 355 184 355 184 364 184 c 128,-1,4
 373 184 373 184 378.5 170.5 c 128,-1,5
 384 157 384 157 384 143 c 0,6,7
 384 92 384 92 328 38 c 128,-1,8
 272 -16 272 -16 212 -16 c 0,9,10
 198 -16 198 -16 190 -7.5 c 128,-1,11
 182 1 182 1 182 14.5 c 128,-1,12
 182 28 182 28 195.5 54 c 128,-1,13
 209 80 209 80 209 86 c 128,-1,14
 209 92 209 92 206 92 c 128,-1,15
 203 92 203 92 201 90 c 0,16,17
 101 6 101 6 54 6 c 0,18,19
 26 6 26 6 26 30 c 0,20,21
 26 68 26 68 82.5 136.5 c 128,-1,22
 139 205 139 205 163 205 c 0,23,24
 178 205 178 205 178 199.5 c 128,-1,25
 178 194 178 194 159.5 176 c 128,-1,26
 141 158 141 158 103.5 111.5 c 128,-1,27
 66 65 66 65 66 44 c 0,28,29
 66 31 66 31 86 31 c 128,-1,30
 106 31 106 31 174 85.5 c 128,-1,31
 242 140 242 140 284 185 c 0,32,33
 300 201 300 201 311.5 201 c 128,-1,34
 323 201 323 201 323 193.5 c 128,-1,35
 323 186 323 186 318.5 179 c 128,-1,36
 314 172 314 172 288 142 c 0,37,38
 223 63 223 63 223 18 c 0,39,40
 223 6 223 6 232 6 c 0,41,42
 269 6 269 6 311 45.5 c 128,-1,43
 353 85 353 85 353 132 c 1,0,-1
EndSplineSet
EndChar

StartChar: x
Encoding: 120 120 29
Width: 254
GlyphClass: 2
Flags: W
LayerCount: 2
Fore
SplineSet
6 -1 m 0,0,1
 -1 -1 -1 -1 -1 6 c 0,2,3
 -1 10 -1 10 9 20 c 0,4,5
 36 50 36 50 102 101 c 1,6,7
 115 160 115 160 115 167 c 128,-1,8
 115 174 115 174 108.5 179 c 128,-1,9
 102 184 102 184 102 186.5 c 128,-1,10
 102 189 102 189 108 195 c 0,11,12
 135 214 135 214 146 214 c 0,13,14
 161 214 161 214 161 198 c 0,15,16
 161 190 161 190 145 134 c 1,17,18
 269 224 269 224 289 224 c 0,19,20
 295 224 295 224 300 218.5 c 128,-1,21
 305 213 305 213 305 209 c 0,22,23
 305 207 305 207 257 180 c 128,-1,24
 209 153 209 153 138 103 c 1,25,26
 131 71 131 71 131 53 c 0,27,28
 131 20 131 20 148 20 c 0,29,30
 161 20 161 20 233 64 c 0,31,32
 291 104 291 104 348 150 c 2,33,-1
 367 166 l 2,34,35
 374 171 374 171 379.5 171 c 128,-1,36
 385 171 385 171 385 163 c 2,37,-1
 385 162 l 1,38,39
 181 -6 181 -6 134 -6 c 0,40,41
 94 -6 94 -6 94 43 c 0,42,43
 94 52 94 52 96 72 c 1,44,45
 54 41 54 41 22 9 c 0,46,47
 10 -1 10 -1 6 -1 c 0,0,1
EndSplineSet
EndChar

StartChar: y
Encoding: 121 121 30
Width: 336
GlyphClass: 2
Flags: W
LayerCount: 2
Fore
SplineSet
66 -114 m 1,0,-1
 79 -97 l 2,1,2
 95 -78 95 -78 99 -72 c 1,3,4
 70 -85 70 -85 53 -89.5 c 128,-1,5
 36 -94 36 -94 36 -96 c 2,6,-1
 66 -114 l 1,0,-1
71 -174 m 0,7,8
 71 -164 71 -164 68 -153 c 1,9,10
 -79 -337 -79 -337 -79 -373 c 0,11,12
 -79 -376 -79 -376 -76 -376 c 0,13,14
 -59 -376 -59 -376 -24 -343 c 128,-1,15
 11 -310 11 -310 41 -261 c 128,-1,16
 71 -212 71 -212 71 -174 c 0,7,8
-9 -97 m 0,17,18
 -6 -89 -6 -89 -4.5 -88 c 128,-1,19
 -3 -87 -3 -87 3 -86.5 c 128,-1,20
 9 -86 9 -86 41 -77.5 c 128,-1,21
 73 -69 73 -69 117 -50 c 1,22,23
 245 113 245 113 252.5 127.5 c 128,-1,24
 260 142 260 142 260 145 c 128,-1,25
 260 148 260 148 256 148 c 128,-1,26
 252 148 252 148 247 141 c 0,27,28
 245 140 245 140 220.5 117.5 c 128,-1,29
 196 95 196 95 172.5 76 c 128,-1,30
 149 57 149 57 118 39.5 c 128,-1,31
 87 22 87 22 65 22 c 128,-1,32
 43 22 43 22 43 38 c 0,33,34
 44 75 44 75 93.5 140 c 128,-1,35
 143 205 143 205 160 205 c 128,-1,36
 177 205 177 205 177 196 c 0,37,38
 177 191 177 191 131.5 134 c 128,-1,39
 86 77 86 77 86 63 c 128,-1,40
 86 49 86 49 95 49 c 0,41,42
 113 49 113 49 198.5 122 c 128,-1,43
 284 195 284 195 304 195 c 0,44,45
 310 195 310 195 315.5 189 c 128,-1,46
 321 183 321 183 321 176 c 0,47,48
 321 154 321 154 177 -21 c 1,49,50
 312 54 312 54 428 149 c 2,51,-1
 450 167 l 2,52,53
 458 172 458 172 463 172 c 128,-1,54
 468 172 468 172 468 167 c 2,55,-1
 467 163 l 1,56,57
 472 163 472 163 414 119 c 128,-1,58
 356 75 356 75 307 41 c 128,-1,59
 258 7 258 7 156 -45 c 1,60,-1
 85 -132 l 1,61,62
 99 -152 99 -152 99 -179 c 0,63,64
 99 -225 99 -225 60 -281.5 c 128,-1,65
 21 -338 21 -338 -27.5 -375.5 c 128,-1,66
 -76 -413 -76 -413 -107 -413 c 0,67,68
 -116 -413 -116 -413 -123.5 -406.5 c 128,-1,69
 -131 -400 -131 -400 -131 -388.5 c 128,-1,70
 -131 -377 -131 -377 -119.5 -354 c 128,-1,71
 -108 -331 -108 -331 -85.5 -300.5 c 128,-1,72
 -63 -270 -63 -270 -43 -245.5 c 128,-1,73
 -23 -221 -23 -221 8 -184 c 128,-1,74
 39 -147 39 -147 54 -129 c 1,75,76
 36 -113 36 -113 13.5 -109 c 128,-1,77
 -9 -105 -9 -105 -9 -97 c 0,17,18
EndSplineSet
EndChar

StartChar: z
Encoding: 122 122 31
Width: 236
GlyphClass: 2
Flags: W
LayerCount: 2
Fore
SplineSet
-146 -392 m 0,0,1
 -122 -392 -122 -392 -66 -336 c 128,-1,2
 -10 -280 -10 -280 41 -200.5 c 128,-1,3
 92 -121 92 -121 99 -66 c 1,4,5
 -4 -133 -4 -133 -80.5 -217.5 c 128,-1,6
 -157 -302 -157 -302 -157 -377 c 0,7,8
 -157 -392 -157 -392 -146 -392 c 0,0,1
213 13 m 128,-1,10
 221 13 221 13 221 6 c 128,-1,11
 221 -1 221 -1 209 -6 c 0,12,13
 176 -18 176 -18 132 -46 c 1,14,-1
 132 -51 l 2,15,16
 132 -111 132 -111 70 -201 c 128,-1,17
 8 -291 8 -291 -64.5 -354.5 c 128,-1,18
 -137 -418 -137 -418 -171 -418 c 0,19,20
 -197 -418 -197 -418 -197 -389 c 0,21,22
 -197 -347 -197 -347 -168.5 -297.5 c 128,-1,23
 -140 -248 -140 -248 -94 -202 c 0,24,25
 -4 -109 -4 -109 101 -43 c 1,26,27
 96 9 96 9 34 13 c 0,28,29
 19 13 19 13 19 22 c 0,30,31
 19 25 19 25 33 33.5 c 128,-1,32
 47 42 47 42 78 61 c 128,-1,33
 109 80 109 80 155 119.5 c 128,-1,34
 201 159 201 159 201 182 c 0,35,36
 201 193 201 193 191 193 c 0,37,38
 168 193 168 193 103 141 c 2,39,-1
 72 116 l 1,40,-1
 68 131 l 1,41,42
 80 140 80 140 95 152 c 0,43,44
 185 226 185 226 229 226 c 0,45,46
 256 226 256 226 256 197 c 0,47,48
 256 138 256 138 74 37 c 0,49,50
 66 33 66 33 66 29 c 128,-1,51
 66 25 66 25 68 25 c 0,52,53
 118 12 118 12 129 -26 c 1,54,55
 152 -12 152 -12 178.5 0.5 c 128,-1,9
 205 13 205 13 213 13 c 128,-1,10
EndSplineSet
EndChar

StartChar: Ograve
Encoding: 210 210 32
Width: 1000
GlyphClass: 2
LayerCount: 2
Back
SplineSet
590.5 734 m 128,-1,1
 608 718 608 718 608 693 c 128,-1,2
 608 668 608 668 596 648 c 1,3,4
 647 623 647 623 647 551 c 0,5,6
 647 454 647 454 564.5 316.5 c 128,-1,7
 482 179 482 179 366 86 c 1,8,9
 408 88 408 88 453.5 106 c 128,-1,10
 499 124 499 124 527 141 c 128,-1,11
 555 158 555 158 558.5 158 c 128,-1,12
 562 158 562 158 562 150 c 0,13,14
 562 130 562 130 486 99.5 c 128,-1,15
 410 69 410 69 351 69 c 2,16,-1
 344 69 l 1,17,18
 230 -15 230 -15 131 -15 c 0,19,20
 65 -15 65 -15 33 21.5 c 128,-1,21
 1 58 1 58 1 131 c 128,-1,22
 1 204 1 204 49.5 313 c 128,-1,23
 98 422 98 422 172.5 518.5 c 128,-1,24
 247 615 247 615 346 682.5 c 128,-1,25
 445 750 445 750 536 750 c 0,26,0
 573 750 573 750 590.5 734 c 128,-1,1
446 498 m 2,27,-1
 447 491 l 2,28,29
 447 479 447 479 440 479 c 0,30,31
 427 479 427 479 427 506.5 c 128,-1,32
 427 534 427 534 446.5 557 c 128,-1,33
 466 580 466 580 503 603.5 c 128,-1,34
 540 627 540 627 552 638 c 1,35,36
 536 642 536 642 526 642 c 0,37,38
 440 642 440 642 361 577.5 c 128,-1,39
 282 513 282 513 237 422.5 c 128,-1,40
 192 332 192 332 192 256 c 0,41,42
 192 96 192 96 341 86 c 1,43,44
 447 172 447 172 526 313 c 128,-1,45
 605 454 605 454 605 550 c 0,46,47
 605 601 605 601 579 624 c 1,48,49
 561 604 561 604 525.5 579.5 c 128,-1,50
 490 555 490 555 468 535.5 c 128,-1,51
 446 516 446 516 446 498 c 2,27,-1
162 10 m 0,52,53
 236 10 236 10 320 70 c 1,54,55
 230 77 230 77 186 124 c 128,-1,56
 142 171 142 171 142 239.5 c 128,-1,57
 142 308 142 308 175.5 381.5 c 128,-1,58
 209 455 209 455 262 516.5 c 128,-1,59
 315 578 315 578 389.5 619 c 128,-1,60
 464 660 464 660 539 660 c 0,61,62
 554 660 554 660 568 657 c 1,63,64
 581 676 581 676 581 695.5 c 128,-1,65
 581 715 581 715 565 724 c 128,-1,66
 549 733 549 733 528 733 c 0,67,68
 447 733 447 733 358 668.5 c 128,-1,69
 269 604 269 604 203 512 c 128,-1,70
 137 420 137 420 94 316.5 c 128,-1,71
 51 213 51 213 51 145 c 0,72,73
 51 10 51 10 162 10 c 0,52,53
535 845 m 0,74,75
 535 858 535 858 546.5 858 c 128,-1,76
 558 858 558 858 567 847 c 128,-1,77
 576 836 576 836 601.5 817 c 128,-1,78
 627 798 627 798 652 789 c 0,79,80
 662 786 662 786 662 778.5 c 128,-1,81
 662 771 662 771 656 771 c 0,82,83
 572 801 572 801 546 828 c 0,84,85
 535 838 535 838 535 845 c 0,74,75
EndSplineSet
EndChar

StartChar: dotlessi
Encoding: 305 305 33
Width: 188
GlyphClass: 2
Flags: W
LayerCount: 2
Fore
SplineSet
31 11 m 0,0,1
 31 40 31 40 81 120.5 c 128,-1,2
 131 201 131 201 154 201 c 0,3,4
 171 201 171 201 171 188 c 128,-1,5
 171 175 171 175 125 117 c 128,-1,6
 79 59 79 59 79 34 c 0,7,8
 79 20 79 20 89.5 20 c 128,-1,9
 100 20 100 20 142 48 c 0,10,11
 217 98 217 98 280 149 c 2,12,-1
 302 167 l 2,13,14
 310 172 310 172 314.5 172 c 128,-1,15
 319 172 319 172 319 166 c 2,16,-1
 319 163 l 1,17,18
 323 163 323 163 265.5 119 c 128,-1,19
 208 75 208 75 142.5 31 c 128,-1,20
 77 -13 77 -13 60 -13 c 0,21,22
 31 -13 31 -13 31 11 c 0,0,1
EndSplineSet
EndChar

StartChar: circumflex
Encoding: 710 710 34
Width: 328
GlyphClass: 2
Flags: W
LayerCount: 2
Fore
SplineSet
171 289 m 128,-1,1
 200 309 200 309 207.5 319 c 128,-1,2
 215 329 215 329 225.5 329 c 128,-1,3
 236 329 236 329 245 320 c 0,4,5
 248 316 248 316 251.5 292.5 c 128,-1,6
 255 269 255 269 269 248 c 0,7,8
 271 244 271 244 271 243 c 0,9,10
 271 238 271 238 265 238 c 128,-1,11
 259 238 259 238 250 246.5 c 128,-1,12
 241 255 241 255 232 274 c 128,-1,13
 223 293 223 293 223 294 c 1,14,15
 199 272 199 272 112 242 c 0,16,17
 106 242 106 242 106 249.5 c 128,-1,18
 106 257 106 257 124 263 c 128,-1,0
 142 269 142 269 171 289 c 128,-1,1
EndSplineSet
EndChar

StartChar: caron
Encoding: 711 711 35
Width: 328
GlyphClass: 2
Flags: W
LayerCount: 2
Fore
SplineSet
207 277 m 128,-1,1
 178 257 178 257 170.5 247 c 128,-1,2
 163 237 163 237 152.5 237 c 128,-1,3
 142 237 142 237 133 246 c 0,4,5
 130 250 130 250 126.5 273.5 c 128,-1,6
 123 297 123 297 109 318 c 0,7,8
 107 322 107 322 107 323 c 0,9,10
 107 328 107 328 113 328 c 128,-1,11
 119 328 119 328 128 319.5 c 128,-1,12
 137 311 137 311 146 292 c 128,-1,13
 155 273 155 273 155 272 c 1,14,15
 179 294 179 294 266 324 c 0,16,17
 272 324 272 324 272 316.5 c 128,-1,18
 272 309 272 309 254 303 c 128,-1,0
 236 297 236 297 207 277 c 128,-1,1
EndSplineSet
EndChar

StartChar: breve
Encoding: 728 728 36
Width: 300
GlyphClass: 2
Flags: W
LayerCount: 2
Fore
SplineSet
392 319 m 0,0,1
 369 289 369 289 337 268.5 c 128,-1,2
 305 248 305 248 279 248 c 0,3,4
 230 248 230 248 227 323 c 0,5,6
 227 328 227 328 233 328 c 128,-1,7
 239 328 239 328 241 326 c 0,8,9
 250 280 250 280 286 280 c 0,10,11
 317 280 317 280 386 324 c 0,12,13
 392 324 392 324 392 319 c 0,0,1
EndSplineSet
EndChar

StartChar: dotaccent
Encoding: 729 729 37
Width: 300
GlyphClass: 2
Flags: W
LayerCount: 2
Fore
SplineSet
314.5 319 m 128,-1,1
 320 313 320 313 320 302 c 128,-1,2
 320 291 320 291 305 274 c 128,-1,3
 290 257 290 257 279 257 c 128,-1,4
 268 257 268 257 263 263.5 c 128,-1,5
 258 270 258 270 258 278.5 c 128,-1,6
 258 287 258 287 274 306 c 128,-1,7
 290 325 290 325 299.5 325 c 128,-1,0
 309 325 309 325 314.5 319 c 128,-1,1
EndSplineSet
EndChar

StartChar: ring
Encoding: 730 730 38
Width: 320
GlyphClass: 2
Flags: W
LayerCount: 2
Fore
SplineSet
142.5 315.5 m 128,-1,1
 161 337 161 337 188.5 337 c 128,-1,2
 216 337 216 337 216 308 c 0,3,4
 216 293 216 293 196.5 272.5 c 128,-1,5
 177 252 177 252 150.5 252 c 128,-1,6
 124 252 124 252 124 278 c 0,7,0
 124 294 124 294 142.5 315.5 c 128,-1,1
200 305 m 0,8,9
 200 322 200 322 182.5 322 c 128,-1,10
 165 322 165 322 152.5 308 c 128,-1,11
 140 294 140 294 140 285 c 0,12,13
 140 267 140 267 157.5 267 c 128,-1,14
 175 267 175 267 187.5 280.5 c 128,-1,15
 200 294 200 294 200 305 c 0,8,9
EndSplineSet
EndChar

StartChar: ogonek
Encoding: 731 731 39
Width: 291
GlyphClass: 2
Flags: W
LayerCount: 2
Fore
SplineSet
163 -70 m 0,0,1
 120 -93 120 -93 92 -93 c 0,2,3
 41 -93 41 -93 41 -64 c 0,4,5
 41 -33 41 -33 100 4 c 1,6,-1
 108 -7 l 1,7,8
 74 -38 74 -38 74 -56 c 0,9,10
 74 -72 74 -72 100.5 -72 c 128,-1,11
 127 -72 127 -72 163 -61 c 0,12,13
 164 -63 164 -63 164 -66 c 128,-1,14
 164 -69 164 -69 163 -70 c 0,0,1
EndSplineSet
EndChar

StartChar: tilde
Encoding: 732 732 40
Width: 386
GlyphClass: 2
Flags: W
LayerCount: 2
Fore
SplineSet
255 279 m 2,0,-1
 161 269 l 2,1,2
 139 269 139 269 122 282.5 c 128,-1,3
 105 296 105 296 98 320 c 0,4,5
 98 325 98 325 102.5 325 c 128,-1,6
 107 325 107 325 110 319 c 0,7,8
 125 295 125 295 159 295 c 2,9,-1
 243 304 l 2,10,11
 268 304 268 304 287.5 293 c 128,-1,12
 307 282 307 282 307 259 c 0,13,14
 307 253 307 253 302.5 253 c 128,-1,15
 298 253 298 253 295 259 c 0,16,17
 282 279 282 279 255 279 c 2,0,-1
EndSplineSet
EndChar

StartChar: hungarumlaut
Encoding: 733 733 41
Width: 500
GlyphClass: 2
Flags: W
LayerCount: 2
Fore
SplineSet
263 316 m 0,0,1
 263 299 263 299 223.5 278 c 128,-1,2
 184 257 184 257 142 242 c 0,3,4
 136 242 136 242 136 249.5 c 128,-1,5
 136 257 136 257 153.5 263 c 128,-1,6
 171 269 171 269 196.5 288 c 128,-1,7
 222 307 222 307 231 318 c 128,-1,8
 240 329 240 329 251.5 329 c 128,-1,9
 263 329 263 329 263 316 c 0,0,1
338 318 m 0,10,11
 338 301 338 301 298.5 280 c 128,-1,12
 259 259 259 259 217 244 c 0,13,14
 211 244 211 244 211 251.5 c 128,-1,15
 211 259 211 259 228.5 265 c 128,-1,16
 246 271 246 271 271.5 290 c 128,-1,17
 297 309 297 309 305.5 320 c 128,-1,18
 314 331 314 331 326 331 c 128,-1,19
 338 331 338 331 338 318 c 0,10,11
EndSplineSet
EndChar

StartChar: pi
Encoding: 960 960 42
Width: 380
GlyphClass: 2
Flags: W
LayerCount: 2
Fore
SplineSet
163 205 m 0,0,1
 178 205 178 205 178 199.5 c 128,-1,2
 178 194 178 194 159.5 176 c 128,-1,3
 141 158 141 158 103.5 111.5 c 128,-1,4
 66 65 66 65 66 44 c 0,5,6
 66 31 66 31 86 31 c 128,-1,7
 106 31 106 31 174 85.5 c 128,-1,8
 242 140 242 140 284 185 c 0,9,10
 300 201 300 201 311.5 201 c 128,-1,11
 323 201 323 201 323 193.5 c 128,-1,12
 323 186 323 186 318.5 179 c 128,-1,13
 314 172 314 172 288 142 c 0,14,15
 223 63 223 63 223 18 c 0,16,17
 223 6 223 6 232 6 c 0,18,19
 255 6 255 6 283.5 24 c 128,-1,20
 312 42 312 42 331 69 c 1,21,22
 326 76 326 76 326 98 c 128,-1,23
 326 120 326 120 338.5 152 c 128,-1,24
 351 184 351 184 361 184 c 0,25,26
 373 184 373 184 378.5 170.5 c 128,-1,27
 384 157 384 157 384 138.5 c 128,-1,28
 384 120 384 120 368 91 c 1,29,30
 426 107 426 107 487 161 c 1,31,-1
 509 161 l 1,32,33
 429 88 429 88 352 66 c 1,34,35
 326 31 326 31 287.5 7.5 c 128,-1,36
 249 -16 249 -16 212 -16 c 0,37,38
 198 -16 198 -16 190 -7.5 c 128,-1,39
 182 1 182 1 182 14.5 c 128,-1,40
 182 28 182 28 195.5 54 c 128,-1,41
 209 80 209 80 209 86 c 128,-1,42
 209 92 209 92 206 92 c 128,-1,43
 203 92 203 92 201 90 c 0,44,45
 101 6 101 6 54 6 c 0,46,47
 26 6 26 6 26 30 c 0,48,49
 26 68 26 68 82.5 136.5 c 128,-1,50
 139 205 139 205 163 205 c 0,0,1
EndSplineSet
EndChar

StartChar: endash
Encoding: 8211 8211 43
Width: 423
GlyphClass: 2
Flags: W
LayerCount: 2
Fore
SplineSet
364 114 m 0,0,1
 364 98 364 98 353 97 c 0,2,3
 266 92 266 92 208.5 92 c 128,-1,4
 151 92 151 92 146.5 94 c 128,-1,5
 142 96 142 96 142 101 c 0,6,7
 142 120 142 120 153 120 c 2,8,-1
 357 120 l 2,9,10
 364 120 364 120 364 114 c 0,0,1
EndSplineSet
EndChar

StartChar: emdash
Encoding: 8212 8212 44
Width: 643
GlyphClass: 2
Flags: W
LayerCount: 2
Fore
SplineSet
584 114 m 0,0,1
 584 98 584 98 562 97 c 0,2,3
 389 92 389 92 282 92 c 128,-1,4
 175 92 175 92 165.5 92.5 c 128,-1,5
 156 93 156 93 150 94 c 0,6,7
 142 96 142 96 142 101.5 c 128,-1,8
 142 107 142 107 147 113.5 c 128,-1,9
 152 120 152 120 164 120 c 2,10,-1
 571 120 l 2,11,12
 584 120 584 120 584 114 c 0,0,1
EndSplineSet
EndChar

StartChar: quoteleft
Encoding: 8216 8216 45
Width: 334
GlyphClass: 2
Flags: W
LayerCount: 2
Fore
SplineSet
206 461 m 0,0,1
 176 461 176 461 176 481 c 0,2,3
 176 509 176 509 220.5 543.5 c 128,-1,4
 265 578 265 578 317 581 c 0,5,6
 327 581 327 581 327 578 c 128,-1,7
 327 575 327 575 317 572.5 c 128,-1,8
 307 570 307 570 297.5 567 c 128,-1,9
 288 564 288 564 276 559 c 128,-1,10
 264 554 264 554 255 548 c 0,11,12
 233 534 233 534 233 519 c 2,13,-1
 234 492 l 2,14,15
 234 480 234 480 226 470.5 c 128,-1,16
 218 461 218 461 206 461 c 0,0,1
EndSplineSet
EndChar

StartChar: quoteright
Encoding: 8217 8217 46
Width: 340
GlyphClass: 2
Flags: W
LayerCount: 2
Fore
SplineSet
376 581 m 0,0,1
 406 581 406 581 406 561 c 0,2,3
 406 533 406 533 361.5 498.5 c 128,-1,4
 317 464 317 464 265 461 c 0,5,6
 255 461 255 461 255 464 c 128,-1,7
 255 467 255 467 265 469.5 c 128,-1,8
 275 472 275 472 284.5 475 c 128,-1,9
 294 478 294 478 306 483 c 128,-1,10
 318 488 318 488 327 494 c 0,11,12
 349 508 349 508 349 523 c 2,13,-1
 348 550 l 2,14,15
 348 562 348 562 356 571.5 c 128,-1,16
 364 581 364 581 376 581 c 0,0,1
EndSplineSet
EndChar

StartChar: quotesinglbase
Encoding: 8218 8218 47
Width: 206
GlyphClass: 2
Flags: W
LayerCount: 2
Fore
SplineSet
119 47 m 0,0,1
 149 47 149 47 149 27 c 0,2,3
 149 -1 149 -1 104.5 -35.5 c 128,-1,4
 60 -70 60 -70 8 -73 c 0,5,6
 -2 -73 -2 -73 -2 -70 c 128,-1,7
 -2 -67 -2 -67 8 -64.5 c 128,-1,8
 18 -62 18 -62 27.5 -59 c 128,-1,9
 37 -56 37 -56 49 -51 c 128,-1,10
 61 -46 61 -46 70 -40 c 0,11,12
 92 -26 92 -26 92 -11 c 2,13,-1
 91 16 l 2,14,15
 91 28 91 28 99 37.5 c 128,-1,16
 107 47 107 47 119 47 c 0,0,1
EndSplineSet
EndChar

StartChar: quotedblleft
Encoding: 8220 8220 48
Width: 428
GlyphClass: 2
Flags: W
LayerCount: 2
Fore
SplineSet
300 459 m 0,0,1
 270 459 270 459 270 479 c 0,2,3
 270 507 270 507 314.5 541.5 c 128,-1,4
 359 576 359 576 411 579 c 0,5,6
 421 579 421 579 421 576 c 128,-1,7
 421 573 421 573 411 570.5 c 128,-1,8
 401 568 401 568 391.5 565 c 128,-1,9
 382 562 382 562 370 557 c 128,-1,10
 358 552 358 552 349 546 c 0,11,12
 327 532 327 532 327 517 c 2,13,-1
 328 490 l 2,14,15
 328 478 328 478 320 468.5 c 128,-1,16
 312 459 312 459 300 459 c 0,0,1
206 461 m 0,17,18
 176 461 176 461 176 481 c 0,19,20
 176 509 176 509 220.5 543.5 c 128,-1,21
 265 578 265 578 317 581 c 0,22,23
 327 581 327 581 327 578 c 128,-1,24
 327 575 327 575 317 572.5 c 128,-1,25
 307 570 307 570 297.5 567 c 128,-1,26
 288 564 288 564 276 559 c 128,-1,27
 264 554 264 554 255 548 c 0,28,29
 233 534 233 534 233 519 c 2,30,-1
 234 492 l 2,31,32
 234 480 234 480 226 470.5 c 128,-1,33
 218 461 218 461 206 461 c 0,17,18
EndSplineSet
EndChar

StartChar: quotedblright
Encoding: 8221 8221 49
Width: 434
GlyphClass: 2
Flags: W
LayerCount: 2
Fore
SplineSet
376 581 m 0,0,1
 406 581 406 581 406 561 c 0,2,3
 406 533 406 533 361.5 498.5 c 128,-1,4
 317 464 317 464 265 461 c 0,5,6
 255 461 255 461 255 464 c 128,-1,7
 255 467 255 467 265 469.5 c 128,-1,8
 275 472 275 472 284.5 475 c 128,-1,9
 294 478 294 478 306 483 c 128,-1,10
 318 488 318 488 327 494 c 0,11,12
 349 508 349 508 349 523 c 2,13,-1
 348 550 l 2,14,15
 348 562 348 562 356 571.5 c 128,-1,16
 364 581 364 581 376 581 c 0,0,1
470 579 m 0,17,18
 500 579 500 579 500 559 c 0,19,20
 500 531 500 531 455.5 496.5 c 128,-1,21
 411 462 411 462 359 459 c 0,22,23
 349 459 349 459 349 462 c 128,-1,24
 349 465 349 465 359 467.5 c 128,-1,25
 369 470 369 470 378.5 473 c 128,-1,26
 388 476 388 476 400 481 c 128,-1,27
 412 486 412 486 421 492 c 0,28,29
 443 506 443 506 443 521 c 2,30,-1
 442 548 l 2,31,32
 442 560 442 560 450 569.5 c 128,-1,33
 458 579 458 579 470 579 c 0,17,18
EndSplineSet
EndChar

StartChar: quotedblbase
Encoding: 8222 8222 50
Width: 306
GlyphClass: 2
Flags: W
LayerCount: 2
Fore
SplineSet
119 47 m 0,0,1
 149 47 149 47 149 27 c 0,2,3
 149 -1 149 -1 104.5 -35.5 c 128,-1,4
 60 -70 60 -70 8 -73 c 0,5,6
 -2 -73 -2 -73 -2 -70 c 128,-1,7
 -2 -67 -2 -67 8 -64.5 c 128,-1,8
 18 -62 18 -62 27.5 -59 c 128,-1,9
 37 -56 37 -56 49 -51 c 128,-1,10
 61 -46 61 -46 70 -40 c 0,11,12
 92 -26 92 -26 92 -11 c 2,13,-1
 91 16 l 2,14,15
 91 28 91 28 99 37.5 c 128,-1,16
 107 47 107 47 119 47 c 0,0,1
219 47 m 0,17,18
 249 47 249 47 249 27 c 0,19,20
 249 -1 249 -1 204.5 -35.5 c 128,-1,21
 160 -70 160 -70 108 -73 c 0,22,23
 98 -73 98 -73 98 -70 c 128,-1,24
 98 -67 98 -67 108 -64.5 c 128,-1,25
 118 -62 118 -62 127.5 -59 c 128,-1,26
 137 -56 137 -56 149 -51 c 128,-1,27
 161 -46 161 -46 170 -40 c 0,28,29
 192 -26 192 -26 192 -11 c 2,30,-1
 191 16 l 2,31,32
 191 28 191 28 199 37.5 c 128,-1,33
 207 47 207 47 219 47 c 0,17,18
EndSplineSet
EndChar

StartChar: bullet
Encoding: 8226 8226 51
Width: 428
GlyphClass: 2
Flags: W
LayerCount: 2
Fore
SplineSet
289.5 136.5 m 128,-1,1
 303 125 303 125 303 107 c 128,-1,2
 303 89 303 89 279 68.5 c 128,-1,3
 255 48 255 48 236.5 48 c 128,-1,4
 218 48 218 48 207.5 58 c 128,-1,5
 197 68 197 68 196 78 c 2,6,-1
 195 88 l 2,7,8
 195 116 195 116 217 132 c 128,-1,9
 239 148 239 148 257.5 148 c 128,-1,0
 276 148 276 148 289.5 136.5 c 128,-1,1
EndSplineSet
EndChar

StartChar: ellipsis
Encoding: 8230 8230 52
Width: 574
GlyphClass: 2
Flags: W
LayerCount: 2
Fore
SplineSet
156.5 35 m 128,-1,1
 162 29 162 29 162 18 c 128,-1,2
 162 7 162 7 147 -10 c 128,-1,3
 132 -27 132 -27 121 -27 c 128,-1,4
 110 -27 110 -27 105 -20.5 c 128,-1,5
 100 -14 100 -14 100 -5.5 c 128,-1,6
 100 3 100 3 116 22 c 128,-1,7
 132 41 132 41 141.5 41 c 128,-1,0
 151 41 151 41 156.5 35 c 128,-1,1
326.5 35 m 128,-1,9
 332 29 332 29 332 18 c 128,-1,10
 332 7 332 7 317 -10 c 128,-1,11
 302 -27 302 -27 291 -27 c 128,-1,12
 280 -27 280 -27 275 -20.5 c 128,-1,13
 270 -14 270 -14 270 -5.5 c 128,-1,14
 270 3 270 3 286 22 c 128,-1,15
 302 41 302 41 311.5 41 c 128,-1,8
 321 41 321 41 326.5 35 c 128,-1,9
487.5 35 m 128,-1,17
 493 29 493 29 493 18 c 128,-1,18
 493 7 493 7 478 -10 c 128,-1,19
 463 -27 463 -27 452 -27 c 128,-1,20
 441 -27 441 -27 436 -20.5 c 128,-1,21
 431 -14 431 -14 431 -5.5 c 128,-1,22
 431 3 431 3 447 22 c 128,-1,23
 463 41 463 41 472.5 41 c 128,-1,16
 482 41 482 41 487.5 35 c 128,-1,17
EndSplineSet
EndChar

StartChar: guilsinglleft
Encoding: 8249 8249 53
Width: 500
GlyphClass: 2
Flags: W
LayerCount: 2
Fore
SplineSet
369.5 30 m 128,-1,1
 385 20 385 20 385 7 c 0,2,3
 385 -13 385 -13 371 -13 c 0,4,5
 367 -13 367 -13 367 -11 c 0,6,7
 367 5 367 5 318 30.5 c 128,-1,8
 269 56 269 56 220.5 79.5 c 128,-1,9
 172 103 172 103 173 116 c 0,10,11
 173 131 173 131 195 131 c 0,12,13
 266 131 266 131 334 145 c 128,-1,14
 402 159 402 159 415 180 c 0,15,16
 417 182 417 182 419 182 c 128,-1,17
 421 182 421 182 424 177 c 128,-1,18
 427 172 427 172 427 167 c 0,19,20
 426 143 426 143 351 126.5 c 128,-1,21
 276 110 276 110 253.5 110 c 128,-1,22
 231 110 231 110 231 108 c 0,23,24
 231 104 231 104 245 96 c 0,25,0
 354 40 354 40 369.5 30 c 128,-1,1
EndSplineSet
EndChar

StartChar: guilsinglright
Encoding: 8250 8250 54
Width: 500
GlyphClass: 2
Flags: W
LayerCount: 2
Fore
SplineSet
212 138 m 0,0,1
 212 165 212 165 227 165 c 0,2,3
 231 165 231 165 231 163 c 0,4,5
 231 143 231 143 317.5 100.5 c 128,-1,6
 404 58 404 58 404 42.5 c 128,-1,7
 404 27 404 27 382 27 c 0,8,9
 308 27 308 27 235 13.5 c 128,-1,10
 162 0 162 0 149 -20 c 0,11,12
 147 -22 147 -22 145 -22 c 128,-1,13
 143 -22 143 -22 140 -17 c 128,-1,14
 137 -12 137 -12 137 -7 c 0,15,16
 138 17 138 17 218 32.5 c 128,-1,17
 298 48 298 48 322 48 c 128,-1,18
 346 48 346 48 346 50 c 0,19,20
 346 54 346 54 332 62 c 0,21,22
 250 105 250 105 231 116.5 c 128,-1,23
 212 128 212 128 212 138 c 0,0,1
EndSplineSet
EndChar

StartChar: foursuperior
Encoding: 8308 8308 55
Width: 367
GlyphClass: 2
Flags: W
LayerCount: 2
Fore
SplineSet
323 488 m 2,0,-1
 322 481 l 1,1,2
 253 347 253 347 214 246 c 1,3,4
 283 262 283 262 304.5 262 c 128,-1,5
 326 262 326 262 348 253 c 128,-1,6
 370 244 370 244 370 234 c 0,7,8
 370 226 370 226 360 226 c 0,9,10
 356 226 356 226 328.5 234.5 c 128,-1,11
 301 243 301 243 280.5 243 c 128,-1,12
 260 243 260 243 211 234 c 1,13,14
 181 153 181 153 180 118 c 0,15,16
 179 109 179 109 172 109 c 0,17,18
 163 109 163 109 158 116.5 c 128,-1,19
 153 124 153 124 153 129 c 0,20,21
 153 155 153 155 179 228 c 1,22,23
 125 214 125 214 90 214 c 0,24,25
 34 214 34 214 34 264.5 c 128,-1,26
 34 315 34 315 86 392.5 c 128,-1,27
 138 470 138 470 217 530.5 c 128,-1,28
 296 591 296 591 361 591 c 0,29,30
 407 591 407 591 407 566 c 0,31,32
 407 547 407 547 384 523.5 c 128,-1,33
 361 500 361 500 347 500 c 0,34,35
 343 500 343 500 343 505 c 128,-1,36
 343 510 343 510 351 513.5 c 128,-1,37
 359 517 359 517 369.5 530.5 c 128,-1,38
 380 544 380 544 380 555 c 0,39,40
 380 573 380 573 335.5 573 c 128,-1,41
 291 573 291 573 227 518.5 c 128,-1,42
 163 464 163 464 118 393 c 128,-1,43
 73 322 73 322 73 276 c 0,44,45
 73 254 73 254 83 243.5 c 128,-1,46
 93 233 93 233 112 233 c 128,-1,47
 131 233 131 233 183 241 c 1,48,49
 227 348 227 348 280 452 c 2,50,-1
 300 489 l 2,51,52
 307 494 307 494 319 494 c 0,53,54
 323 494 323 494 323 488 c 2,0,-1
EndSplineSet
EndChar

StartChar: trademark
Encoding: 8482 8482 56
Width: 637
GlyphClass: 2
Flags: W
LayerCount: 2
Fore
SplineSet
462 495 m 0,0,1
 428 495 428 495 390 462 c 1,2,3
 471 475 471 475 471 491 c 0,4,5
 471 495 471 495 462 495 c 0,0,1
334 187 m 0,6,7
 344 187 344 187 381.5 236 c 128,-1,8
 419 285 419 285 445 334 c 1,9,10
 404 297 404 297 367 251 c 128,-1,11
 330 205 330 205 330 191 c 0,12,13
 330 187 330 187 334 187 c 0,6,7
226 446 m 1,14,-1
 218 442 l 2,15,16
 217 442 217 442 216 443 c 0,17,18
 195 451 195 451 195 461 c 0,19,20
 195 466 195 466 199 466 c 2,21,-1
 201 466 l 1,22,23
 265 456 265 456 305 456 c 128,-1,24
 345 456 345 456 370 460 c 1,25,26
 422 505 422 505 470 505 c 0,27,28
 490 505 490 505 490 492 c 0,29,30
 490 467 490 467 379 452 c 1,31,32
 348 421 348 421 307.5 357 c 128,-1,33
 267 293 267 293 236 251.5 c 128,-1,34
 205 210 205 210 183 210 c 0,35,36
 169 210 169 210 169 219 c 128,-1,37
 169 228 169 228 176 238.5 c 128,-1,38
 183 249 183 249 188 249 c 128,-1,39
 193 249 193 249 193 244 c 2,40,-1
 191 237 l 2,41,42
 191 235 191 235 193 235 c 0,43,44
 212 235 212 235 258 312 c 0,45,46
 309 400 309 400 359 450 c 1,47,48
 331 446 331 446 283 446 c 2,49,-1
 226 446 l 1,14,-1
409 178 m 1,50,51
 400 182 400 182 400 184 c 0,52,53
 400 191 400 191 423 221 c 0,54,55
 525 346 525 346 525 374 c 0,56,57
 525 380 525 380 512.5 380 c 128,-1,58
 500 380 500 380 469 353 c 1,59,60
 438 290 438 290 394 234 c 128,-1,61
 350 178 350 178 326 178 c 0,62,63
 317 178 317 178 317 185 c 0,64,65
 317 205 317 205 360.5 259 c 128,-1,66
 404 313 404 313 452 353 c 0,67,68
 452 354 452 354 452.5 354 c 128,-1,69
 453 354 453 354 461 373.5 c 128,-1,70
 469 393 469 393 469 408 c 0,71,72
 469 433 469 433 443.5 433 c 128,-1,73
 418 433 418 433 371.5 384.5 c 128,-1,74
 325 336 325 336 325 313 c 0,75,76
 325 305 325 305 339 305 c 128,-1,77
 353 305 353 305 375 324 c 128,-1,78
 397 343 397 343 405 355.5 c 128,-1,79
 413 368 413 368 415.5 368 c 128,-1,80
 418 368 418 368 418 365 c 0,81,82
 418 351 418 351 386.5 323.5 c 128,-1,83
 355 296 355 296 332 296 c 128,-1,84
 309 296 309 296 309 313 c 0,85,86
 309 345 309 345 359 393.5 c 128,-1,87
 409 442 409 442 456 442 c 0,88,89
 484 442 484 442 484 410 c 0,90,91
 484 389 484 389 475 367 c 1,92,93
 509 392 509 392 525 392 c 128,-1,94
 541 392 541 392 541 380 c 0,95,96
 541 365 541 365 517 325.5 c 128,-1,97
 493 286 493 286 469 254 c 2,98,-1
 445 223 l 1,99,-1
 445 221 l 1,100,101
 459 230 459 230 493 262 c 0,102,103
 576 340 576 340 600 340 c 0,104,105
 613 340 613 340 613 333 c 0,106,107
 613 322 613 322 571 267.5 c 128,-1,108
 529 213 529 213 529 200 c 128,-1,109
 529 187 529 187 538 187 c 0,110,111
 550 187 550 187 568.5 198.5 c 128,-1,112
 587 210 587 210 596 220 c 1,113,114
 602 220 602 220 602 218 c 0,115,116
 602 211 602 211 572.5 192.5 c 128,-1,117
 543 174 543 174 524.5 174 c 128,-1,118
 506 174 506 174 506 188 c 0,119,120
 506 212 506 212 544.5 261.5 c 128,-1,121
 583 311 583 311 586 322 c 0,122,123
 586 325 586 325 579.5 325 c 128,-1,124
 573 325 573 325 530.5 288 c 128,-1,125
 488 251 488 251 466 229.5 c 128,-1,126
 444 208 444 208 433 197 c 0,127,128
 414 178 414 178 411 178 c 2,129,-1
 409 178 l 1,50,51
EndSplineSet
EndChar
